# xmcd
#
# Track frame offsets: 
#        150
#        16692
#        39292
#        55750
#        75317
#        96752
#        118302
#        137982
#        160595
#        181705
#        199017
#
# Disc length: 2905 seconds
#
# Revision: 2
# Processed by: cddbd v1.5.2PL0 Copyright (c) Steve Scherf et al.
# Submitted via: ExactAudioCopyFreeDBPlugin 1.0
#
DISCID=7c0b570b
DTITLE=Fam-Lee - Runs In The Fam-Lee
DYEAR=1992
DGENRE=R&B
TTITLE0=Always On My Mind
TTITLE1=Precious Girl
TTITLE2=You're The One For Me
TTITLE3=She's So Real
TTITLE4=Hey Girl
TTITLE5=Love Me
TTITLE6=Runs In The Fam-Lee
TTITLE7=Who's That Girl
TTITLE8=That's The Way
TTITLE9=Thank You
TTITLE10=You're My Girl
EXTD=
EXTT0=
EXTT1=
EXTT2=
EXTT3=
EXTT4=
EXTT5=
EXTT6=
EXTT7=
EXTT8=
EXTT9=
EXTT10=
PLAYORDER=
